<svg width="177" height="54" viewBox="0 0 177 54" fill="none" xmlns="http://www.w3.org/2000/svg">
<path d="M113.436 34.4089C113.436 33.1721 113.408 32.0798 113.463 30.9905C113.472 30.8093 113.827 30.5297 114.051 30.4974C114.589 30.419 114.908 30.1702 114.906 29.6447C114.899 26.5813 114.87 23.5194 114.84 20.4576C114.84 20.3055 114.764 20.1534 114.67 19.8092C114.094 21.2672 113.466 22.5208 113.104 23.8467C112.171 27.2558 110.889 30.5358 109.602 33.8174C109.281 34.6347 108.446 34.5901 107.881 34.5779C107.382 34.5671 106.633 34.0832 106.446 33.6253C105.391 31.0612 104.235 28.4971 103.587 25.8193C103.142 23.9788 102.322 22.3564 101.642 20.6481C101.577 20.4852 101.418 20.3623 101.141 20.0228C101.094 20.8232 101.035 21.3932 101.032 21.9647C101.022 24.2154 101.037 26.4646 101.023 28.7153C101.017 29.6017 101.286 30.2362 102.248 30.4636C102.443 30.5097 102.698 30.8338 102.709 31.0412C102.755 31.9661 102.758 32.8987 102.687 33.822C102.67 34.0325 102.3 34.3766 102.084 34.3843C100.681 34.435 99.2744 34.4058 97.8681 34.4135C97.5319 34.415 97.1803 34.4058 96.864 34.4949C96.233 34.6731 95.9321 34.4227 95.8984 33.8266C95.8477 32.9017 95.751 31.963 95.8538 31.052C95.8938 30.694 96.4219 30.3898 96.7274 30.0611C96.8779 29.8998 97.1557 29.7369 97.1573 29.5741C97.1696 26.5091 97.1511 23.4442 97.1327 20.3792C97.1327 20.3009 97.0774 20.224 97.0513 20.1518C95.7924 19.926 95.797 19.926 95.8201 18.6462C95.8308 17.9995 95.84 17.3527 95.8201 16.7074C95.8032 16.1513 95.9981 15.8886 96.603 15.8916C99.5692 15.9085 102.537 15.9008 105.503 15.8916C106.223 15.8886 106.631 16.1881 106.86 16.8918C107.344 18.382 107.881 19.8569 108.441 21.3225C108.627 21.8095 108.951 22.2458 109.33 22.9157C109.754 21.874 110.115 21.0337 110.439 20.1795C110.878 19.0257 111.237 17.8381 111.742 16.7166C111.9 16.3663 112.418 15.9608 112.779 15.9531C115.886 15.8932 118.993 15.9193 122.102 15.9193C122.577 15.9193 122.738 16.1743 122.721 16.6229C122.692 17.3819 122.679 18.1408 122.681 18.8997C122.682 19.5773 122.527 20.1027 121.766 20.3162C121.583 20.3669 121.381 20.7233 121.37 20.9492C121.293 22.3795 121.252 23.8113 121.23 25.2432C121.213 26.4523 121.259 27.6614 121.239 28.8704C121.229 29.5771 121.5 30.0734 122.171 30.2915C122.636 30.4436 122.753 30.7294 122.735 31.1811C122.704 31.9676 122.747 32.7573 122.712 33.5424C122.672 34.4273 122.243 34.6777 121.364 34.5164C120.788 34.4104 120.186 34.4227 119.597 34.4196C117.596 34.4089 115.594 34.415 113.433 34.415L113.436 34.4089Z" fill="white"/>
<path d="M73.5298 24.4366C73.7739 27.6798 73.3962 30.7248 70.6588 32.8357C69.5627 33.6807 68.1502 34.4089 66.8007 34.5871C62.9089 35.1018 59.106 34.8437 56.186 31.665C54.7981 30.1548 54.1487 28.322 53.9537 26.3232C53.771 24.4628 53.7971 22.5685 54.7136 20.9077C55.8497 18.8475 57.3804 17.2083 59.7447 16.3111C61.3843 15.6889 62.9779 15.6704 64.6145 15.7488C65.4267 15.7872 66.248 16.0929 67.0218 16.3894C67.837 16.7013 68.5571 16.9486 69.2372 16.1328C69.3815 15.9592 69.7423 15.9132 70.0079 15.8993C70.5713 15.8686 71.1363 15.8947 71.7013 15.8993C72.6439 15.907 72.8926 16.1436 72.9049 17.113C72.9218 18.5464 72.9034 19.9798 72.931 21.4132C72.9402 21.9371 72.7284 22.106 72.2263 22.0922C71.2668 22.0661 70.3027 22.1276 69.3477 22.0538C69.01 22.0277 68.5694 21.8003 68.3867 21.5269C67.3227 19.9306 65.7829 19.6587 64.0664 19.9352C63.6028 20.009 63.0363 20.2517 62.7722 20.6051C62.0844 21.5238 61.5302 22.5408 61.5333 23.7545C61.5363 24.7669 61.6162 25.7901 61.4964 26.7872C61.3659 27.8841 61.8173 28.8305 62.3562 29.5971C63.6013 31.3685 65.7491 31.496 67.2199 29.7969C67.444 29.5372 67.4118 28.9934 67.358 28.5985C67.3411 28.4772 66.8667 28.3435 66.5996 28.342C65.9441 28.3389 65.6616 27.964 65.6247 27.4063C65.5787 26.7073 65.5956 26.0021 65.6355 25.3016C65.6662 24.7516 65.9794 24.4336 66.5704 24.4351C68.8549 24.4382 71.1409 24.4351 73.5298 24.4351V24.4366Z" fill="white"/>
<path d="M36.8093 26.4492C36.8093 20.2348 36.8077 14.0204 36.8093 7.80599C36.8093 5.86408 37.9791 4.83321 39.9028 5.0652C40.8839 5.18349 41.4795 5.81953 41.8096 6.66143C42.0307 7.22372 42.1612 7.85976 42.1673 8.46353C42.2057 12.8221 42.2088 17.1806 42.2119 21.5391C42.218 29.3498 42.2272 37.1589 42.2057 44.9695C42.2026 46.1171 41.8142 47.1541 40.8117 47.8685C39.4591 48.8318 37.1255 47.9115 36.9782 46.2646C36.8262 44.5608 36.8369 42.8402 36.8308 41.1272C36.8139 36.234 36.8246 31.3408 36.8246 26.4492C36.82 26.4492 36.8139 26.4492 36.8093 26.4492Z" fill="white"/>
<path d="M139.684 26.9209C139.684 33.1614 139.689 39.4004 139.681 45.6409C139.679 47.5382 138.325 48.6536 136.446 48.3325C135.413 48.1558 134.582 47.317 134.562 46.2677C134.507 43.3733 134.466 40.4773 134.496 37.5844C134.539 33.5132 134.699 29.442 134.717 25.3692C134.728 22.9295 134.526 20.4898 134.493 18.0486C134.452 14.8439 134.476 11.6391 134.487 8.43436C134.489 7.90279 134.526 7.36508 134.616 6.8412C134.665 6.55391 134.803 6.23743 135.001 6.02695C135.897 5.0729 138.176 5.0053 139.007 6.0162C139.415 6.51243 139.633 7.2898 139.652 7.94888C139.707 9.80014 139.59 11.6576 139.584 13.5119C139.57 17.981 139.58 22.4517 139.58 26.9209C139.613 26.9209 139.649 26.9209 139.682 26.9209H139.684Z" fill="white"/>
<path d="M86.214 23.621C86.7652 22.713 87.3378 21.8174 87.8445 20.8848C87.932 20.722 87.7616 20.3947 87.6633 20.1627C87.5144 19.814 87.2104 19.4944 87.172 19.1426C87.0953 18.4206 87.1628 17.6831 87.1475 16.9534C87.1321 16.259 87.4392 15.8948 88.1469 15.8948C89.7283 15.8948 91.308 15.8902 92.8893 15.901C93.5541 15.9056 93.9533 16.2252 93.9702 16.9211C93.9901 17.763 94.027 18.6049 94.007 19.4453C94.0039 19.6143 93.7967 19.9108 93.6631 19.9231C92.4963 20.0275 92.1816 21.0538 91.632 21.7836C90.9073 22.7468 90.1259 23.7208 89.6699 24.8147C89.1126 26.1498 88.1162 27.3389 88.1362 28.9013C88.1469 29.6833 88.4816 30.201 89.2308 30.3946C89.7098 30.519 89.8572 30.7818 89.8403 31.2442C89.8112 32.0308 89.7943 32.8189 89.8204 33.604C89.8403 34.2339 89.5778 34.4259 88.9622 34.4198C86.647 34.3921 84.3318 34.4136 82.0166 34.4044C81.4655 34.4029 80.9005 34.4151 80.3708 34.2922C80.1621 34.2446 79.944 33.8636 79.8918 33.604C79.8166 33.2276 79.9517 32.8112 79.8857 32.4318C79.7045 31.3717 80.073 30.6297 81.0387 30.158C81.1815 30.0889 81.3933 29.9368 81.3903 29.8262C81.3672 28.7108 81.7756 27.5324 80.836 26.5461C80.5843 26.2819 80.5581 25.8164 80.3724 25.4738C80.0807 24.9345 79.7675 24.4045 79.419 23.9021C78.6851 22.8421 77.9329 21.7943 77.1652 20.7588C76.9702 20.4961 76.7123 20.1428 76.4391 20.0967C75.5808 19.9523 75.4688 19.5083 75.5962 18.7509C75.6929 18.1794 75.6008 17.574 75.5854 16.9841C75.567 16.2835 75.9493 15.9133 76.6079 15.9071C79.092 15.8841 81.576 15.8872 84.0601 15.9041C84.6051 15.9087 84.9613 16.6507 84.8538 17.4189C84.8154 17.6893 84.7172 18.0073 84.8139 18.2331C85.167 19.0535 84.9214 19.6312 84.2412 20.1335C84.1 20.238 83.9572 20.5714 84.0202 20.6805C84.6158 21.7067 85.2576 22.7069 85.8855 23.7147C85.9945 23.6824 86.1035 23.6502 86.2125 23.6195L86.214 23.621Z" fill="white"/>
<path d="M140.734 26.7136C140.734 21.8803 140.774 17.047 140.714 12.2153C140.691 10.3241 141.949 9.53906 143.386 9.35931C144.512 9.21797 145.865 10.5023 145.936 11.8481C146.014 13.3507 145.877 14.8655 145.831 16.3757C145.822 16.6845 145.79 16.9917 145.79 17.3005C145.788 23.538 145.773 29.777 145.799 36.0144C145.805 37.5799 145.971 39.1439 146.017 40.7109C146.051 41.8847 145.693 42.914 144.735 43.6914C143.72 44.5149 142.059 44.3597 141.388 43.2366C141.034 42.6436 140.776 41.8939 140.768 41.2118C140.716 36.3801 140.74 31.5468 140.74 26.7136H140.734Z" fill="white"/>
<path d="M35.638 26.6765C35.638 31.6235 35.6396 36.572 35.638 41.5189C35.638 42.7664 34.3761 44.1322 33.1878 44.1844C31.7845 44.2459 30.5425 43.0383 30.541 41.5604C30.5348 31.6373 30.5379 21.7142 30.5364 11.7896C30.5364 10.5683 31.2318 9.80931 32.2467 9.29157C33.2001 8.80456 34.1381 9.21936 34.7307 9.82314C35.2389 10.3393 35.5582 11.2565 35.569 12.0032C35.6411 16.8933 35.6058 21.7849 35.6058 26.6765C35.6165 26.6765 35.6273 26.6765 35.638 26.6765Z" fill="white"/>
<path d="M146.866 26.9285C146.866 24.369 146.86 21.811 146.872 19.2515C146.875 18.7768 146.869 18.2729 147.023 17.835C147.316 17.0024 147.54 15.9915 148.561 15.7764C149.738 15.5275 150.976 15.4952 151.762 16.6736C152.026 17.0684 152.226 17.5923 152.227 18.0578C152.236 21.2042 152.163 24.3506 152.158 27.4985C152.155 30.1118 152.226 32.725 152.229 35.3368C152.23 36.4352 150.706 38.1667 149.76 38.0699C148.392 37.9285 146.848 36.91 146.855 35.1954C146.863 33.4517 146.855 31.708 146.855 29.9658C146.855 28.9534 146.855 27.9409 146.855 26.9285C146.858 26.9285 146.863 26.9285 146.866 26.9285Z" fill="white"/>
<path d="M29.5123 26.6521C29.5123 29.4051 29.4309 32.1628 29.5445 34.9113C29.6075 36.4261 28.4284 37.7581 26.9008 37.7596C25.2888 37.7596 24.185 36.7349 24.1404 34.9989C24.1051 33.6239 24.1496 32.2458 24.1558 30.8693C24.1696 27.1637 24.1696 23.4565 24.2018 19.7509C24.208 18.972 24.2663 18.1824 24.4091 17.4188C24.6363 16.202 25.5483 15.6613 26.6736 15.4585C27.5011 15.3094 28.9381 16.1913 29.3511 17.0747C29.4755 17.3389 29.4893 17.6708 29.4908 17.9719C29.5 20.8663 29.497 23.7607 29.497 26.6536C29.5031 26.6536 29.5077 26.6536 29.5138 26.6536L29.5123 26.6521Z" fill="white"/>
<path d="M153.289 29.3468C153.316 27.5769 153.362 25.9914 153.346 24.4075C153.342 23.8867 153.509 23.6854 154.013 23.6885C158.499 23.7254 162.985 23.7561 167.471 23.793C167.552 23.793 167.633 23.8283 167.824 23.8713C167.824 25.0482 167.824 26.2465 167.824 27.4433C167.824 29.5834 167.822 29.5741 165.727 29.5649C162.226 29.5511 158.726 29.4881 155.228 29.591C154.452 29.6141 153.776 29.6801 153.291 29.3468H153.289Z" fill="white"/>
<path d="M16.0804 29.5404C13.9648 29.5404 11.8492 29.545 9.7336 29.5388C8.87539 29.5358 8.68502 29.1778 8.75564 28.3205C8.84622 27.2113 8.8493 26.0837 8.75871 24.9744C8.68502 24.0788 8.85083 23.7823 9.83954 23.7777C13.5073 23.7592 17.175 23.7515 20.8427 23.75C21.5182 23.75 22.1999 23.7577 22.8647 23.8529C23.0627 23.8806 23.3636 24.217 23.3667 24.4137C23.3867 25.9531 23.3667 27.4955 23.2899 29.0334C23.2807 29.2055 22.8401 29.4928 22.596 29.4974C20.4251 29.5342 18.2528 29.5189 16.0804 29.5189C16.0804 29.5266 16.0804 29.5327 16.0804 29.5404Z" fill="white"/>
<path d="M124.476 23.7223C126.587 23.7223 128.556 23.7223 130.528 23.7223C131.232 23.7223 131.939 23.7315 132.643 23.7069C133.101 23.6916 133.303 23.8329 133.297 24.3307C133.277 25.8194 133.333 27.308 133.29 28.7952C133.279 29.1731 133.013 29.5434 132.915 29.7907C132.192 29.6955 131.633 29.568 131.073 29.5572C129.662 29.528 128.251 29.5557 126.838 29.5511C126.218 29.5495 125.593 29.568 124.982 29.4865C124.794 29.462 124.503 29.1409 124.5 28.9504C124.462 27.242 124.479 25.5321 124.479 23.7238L124.476 23.7223Z" fill="white"/>
<path d="M43.3987 29.7646C43.3266 29.485 43.1439 29.0994 43.1393 28.7122C43.1224 27.2819 43.1669 25.85 43.1792 24.4197C43.1823 24.0264 43.1915 23.6823 43.735 23.6838C46.4094 23.6915 49.0838 23.6869 51.9025 23.6869C51.9025 24.9989 51.9025 26.2234 51.9025 27.4478C51.9025 28.8397 51.2142 29.5357 49.8376 29.5357C48.2855 29.5357 46.7333 29.5203 45.1812 29.5449C44.6653 29.5526 44.1495 29.6678 43.3972 29.7646H43.3987Z" fill="white"/>
</svg>
